<?xml version="1.0" encoding="UTF-8" standalone="no"?>
<!-- Created with Inkscape (http://www.inkscape.org/) -->
<svg xmlns:dc="http://purl.org/dc/elements/1.1/" xmlns:cc="http://creativecommons.org/ns#" xmlns:rdf="http://www.w3.org/1999/02/22-rdf-syntax-ns#" xmlns:svg="http://www.w3.org/2000/svg" xmlns="http://www.w3.org/2000/svg" xmlns:sodipodi="http://sodipodi.sourceforge.net/DTD/sodipodi-0.dtd" xmlns:inkscape="http://www.inkscape.org/namespaces/inkscape" width="128.69078" height="20" viewBox="0 0 34.049438 5.2916668" version="1.1" id="svg5966" inkscape:version="0.92.2 2405546, 2018-03-11" sodipodi:docname="icon VCV Community.svg" inkscape:export-filename="/home/vortico/src/VCV/design/icon/icon-circle.png" inkscape:export-xdpi="2457.6001" inkscape:export-ydpi="2457.6001">
  <defs id="defs5960"/>
  
  
  <g inkscape:label="Layer 1" inkscape:groupmode="layer" id="layer1" transform="translate(21.145555,-14.831235)">
    <circle style="opacity:1;vector-effect:none;fill:#000000;fill-opacity:1;fill-rule:evenodd;stroke:none;stroke-width:1.69056606;stroke-linecap:butt;stroke-linejoin:miter;stroke-miterlimit:4;stroke-dasharray:none;stroke-dashoffset:0;stroke-opacity:1;paint-order:normal" id="path73817" cx="-18.499722" cy="17.477068" r="2.6458333"/>
    <path style="fill:#ffffff;fill-opacity:1;fill-rule:nonzero;stroke:none;stroke-width:0.13229166;stroke-miterlimit:4;stroke-dasharray:none;stroke-opacity:1" d="m -18.495824,19.328728 c -1.021244,0 -1.85206,-0.830862 -1.85206,-1.85206 0,-1.021244 0.830816,-1.852106 1.85206,-1.852106 0.404458,0 0.788856,0.128132 1.111604,0.37055 0.192406,0.144558 0.231237,0.417708 0.08673,0.610161 -0.144557,0.192406 -0.417754,0.231283 -0.610206,0.08668 -0.170553,-0.128087 -0.373955,-0.195811 -0.588123,-0.195811 -0.540643,0 -0.980527,0.439839 -0.980527,0.980527 0,0.540642 0.439884,0.980481 0.980527,0.980481 0.214168,0 0.41757,-0.06772 0.588123,-0.195857 0.192406,-0.144604 0.465557,-0.105681 0.610206,0.08673 0.144512,0.192453 0.105681,0.465603 -0.08673,0.610161 -0.322748,0.242417 -0.707146,0.37055 -1.111604,0.37055" id="path73821" inkscape:connector-curvature="0"/>
    <path style="fill:#ffffff;fill-opacity:1;fill-rule:nonzero;stroke:none;stroke-width:0.13229166;stroke-miterlimit:4;stroke-dasharray:none;stroke-opacity:1" d="m -17.933223,17.477068 c 0,0.312855 -0.253643,0.566499 -0.566499,0.566499 -0.312902,0 -0.566499,-0.253644 -0.566499,-0.566499 0,-0.312902 0.253597,-0.566499 0.566499,-0.566499 0.312856,0 0.566499,0.253597 0.566499,0.566499" id="path6345-5" inkscape:connector-curvature="0"/>
    <g aria-label="VCV Community" style="font-style:normal;font-variant:normal;font-weight:bold;font-stretch:normal;font-size:3.52777767px;line-height:6.61458302px;font-family:Nunito;-inkscape-font-specification:'Nunito Bold';font-variant-ligatures:normal;font-variant-caps:normal;font-variant-numeric:normal;font-feature-settings:normal;text-align:start;letter-spacing:0px;word-spacing:0px;writing-mode:lr-tb;text-anchor:start;fill:#000000;fill-opacity:1;stroke:none;stroke-width:0.26458332px;stroke-linecap:butt;stroke-linejoin:miter;stroke-opacity:1" id="text817">
      <path d="m -12.005098,16.344652 q 0.05644,-0.119944 0.186972,-0.119944 0.08819,0 0.15875,0.05644 0.07056,0.05645 0.07056,0.141111 0,0.03881 -0.02117,0.08819 l -0.977194,2.102555 q -0.03175,0.06703 -0.09878,0.105834 -0.0635,0.03528 -0.137584,0.03528 -0.07408,0 -0.141111,-0.03528 -0.0635,-0.03881 -0.09525,-0.105834 l -0.973666,-2.102555 q -0.02117,-0.04939 -0.02117,-0.08467 0,-0.08819 0.07056,-0.144639 0.07408,-0.05644 0.165805,-0.05644 0.05997,0 0.109361,0.03175 0.05292,0.02822 0.08114,0.08819 l 0.811389,1.802695 z" style="font-style:normal;font-variant:normal;font-weight:bold;font-stretch:normal;font-size:3.52777767px;font-family:Nunito;-inkscape-font-specification:'Nunito Bold';stroke-width:0.26458332px" id="path31"/>
      <path d="m -10.2438,18.764708 q -0.359833,0 -0.631472,-0.155222 -0.268111,-0.155223 -0.41275,-0.4445 -0.144639,-0.289278 -0.144639,-0.677334 0,-0.388055 0.144639,-0.673805 0.144639,-0.289278 0.41275,-0.4445 0.271639,-0.155222 0.631472,-0.155222 0.232833,0 0.4374444,0.07056 0.2046111,0.06703 0.3633611,0.197556 0.045861,0.03528 0.0635,0.07408 0.017639,0.03881 0.017639,0.09525 0,0.07761 -0.042333,0.130528 -0.042333,0.05292 -0.1023056,0.05292 -0.070555,0 -0.1446389,-0.04939 -0.1516944,-0.112889 -0.2822222,-0.155223 -0.1305274,-0.04586 -0.2892774,-0.04586 -0.366889,0 -0.557389,0.229306 -0.186972,0.229305 -0.186972,0.673805 0,0.448028 0.186972,0.677334 0.1905,0.229305 0.557389,0.229305 0.151694,0 0.2786941,-0.04586 0.1305278,-0.04586 0.2928055,-0.155222 0.035278,-0.02117 0.070556,-0.03528 0.035278,-0.01411 0.074083,-0.01411 0.059972,0 0.1023056,0.05292 0.042333,0.05292 0.042333,0.130527 0,0.05292 -0.017639,0.09525 -0.017639,0.03881 -0.0635,0.07408 -0.15875,0.130528 -0.3633611,0.201083 -0.2046114,0.06703 -0.4374444,0.06703 z" style="font-style:normal;font-variant:normal;font-weight:bold;font-stretch:normal;font-size:3.52777767px;font-family:Nunito;-inkscape-font-specification:'Nunito Bold';stroke-width:0.26458332px" id="path33"/>
      <path d="m -7.1957453,16.344652 q 0.056444,-0.119944 0.1869723,-0.119944 0.088194,0 0.15875,0.05644 0.070556,0.05645 0.070556,0.141111 0,0.03881 -0.021167,0.08819 l -0.9771944,2.102555 q -0.03175,0.06703 -0.098778,0.105834 -0.0635,0.03528 -0.1375834,0.03528 -0.074083,0 -0.1411111,-0.03528 -0.0635,-0.03881 -0.09525,-0.105834 l -0.9736666,-2.102555 q -0.021167,-0.04939 -0.021167,-0.08467 0,-0.08819 0.070556,-0.144639 0.074083,-0.05644 0.1658055,-0.05644 0.059972,0 0.1093611,0.03175 0.052917,0.02822 0.081139,0.08819 l 0.8113889,1.802695 z" style="font-style:normal;font-variant:normal;font-weight:bold;font-stretch:normal;font-size:3.52777767px;font-family:Nunito;-inkscape-font-specification:'Nunito Bold';stroke-width:0.26458332px" id="path35"/>
      <path d="m -4.4146987,18.764708 q -0.3598333,0 -0.6314722,-0.155222 -0.2681111,-0.155223 -0.41275,-0.4445 -0.1446389,-0.289278 -0.1446389,-0.677334 0,-0.388055 0.1446389,-0.673805 0.1446389,-0.289278 0.41275,-0.4445 0.2716389,-0.155222 0.6314722,-0.155222 0.2328333,0 0.4374444,0.07056 0.2046112,0.06703 0.3633611,0.197556 0.045861,0.03528 0.0635,0.07408 0.017639,0.03881 0.017639,0.09525 0,0.07761 -0.042333,0.130528 -0.042333,0.05292 -0.1023056,0.05292 -0.070555,0 -0.1446388,-0.04939 -0.1516945,-0.112889 -0.2822222,-0.155223 -0.1305278,-0.04586 -0.2892778,-0.04586 -0.3668889,0 -0.5573889,0.229306 -0.1869722,0.229305 -0.1869722,0.673805 0,0.448028 0.1869722,0.677334 0.1905,0.229305 0.5573889,0.229305 0.1516944,0 0.2786944,-0.04586 0.1305278,-0.04586 0.2928056,-0.155222 0.035278,-0.02117 0.070556,-0.03528 0.035278,-0.01411 0.074083,-0.01411 0.059972,0 0.1023056,0.05292 0.042333,0.05292 0.042333,0.130527 0,0.05292 -0.017639,0.09525 -0.017639,0.03881 -0.0635,0.07408 -0.1587499,0.130528 -0.3633611,0.201083 -0.2046111,0.06703 -0.4374444,0.06703 z" style="font-style:normal;font-variant:normal;font-weight:bold;font-stretch:normal;font-size:3.52777767px;font-family:Nunito;-inkscape-font-specification:'Nunito Bold';stroke-width:0.26458332px" id="path37"/>
      <path d="m -2.4216145,18.76118 q -0.2645833,0 -0.4656666,-0.109361 -0.1975556,-0.109361 -0.3069167,-0.313972 -0.1093611,-0.204611 -0.1093611,-0.47625 0,-0.271639 0.1093611,-0.472722 0.1093611,-0.204612 0.3069167,-0.313973 0.2010833,-0.109361 0.4656666,-0.109361 0.2645834,0 0.4621389,0.109361 0.2010833,0.109361 0.3069167,0.313973 0.1093611,0.201083 0.1093611,0.472722 0,0.271639 -0.1093611,0.47625 -0.1058334,0.204611 -0.3069167,0.313972 -0.1975555,0.109361 -0.4621389,0.109361 z m -0.00353,-0.342194 q 0.2151944,0 0.3280833,-0.141111 0.1128889,-0.141112 0.1128889,-0.416278 0,-0.271639 -0.1128889,-0.41275 -0.1128889,-0.144639 -0.3245556,-0.144639 -0.2116666,0 -0.3280833,0.144639 -0.1128889,0.141111 -0.1128889,0.41275 0,0.275166 0.1128889,0.416278 0.1128889,0.141111 0.3245556,0.141111 z" style="font-style:normal;font-variant:normal;font-weight:bold;font-stretch:normal;font-size:3.52777767px;font-family:Nunito;-inkscape-font-specification:'Nunito Bold';stroke-width:0.26458332px" id="path39"/>
      <path d="m 0.86704576,16.965541 q 0.28222224,0 0.43038884,0.169334 0.1516945,0.165805 0.1516945,0.53975 v 0.867833 q 0,0.102305 -0.0635,0.15875 -0.059972,0.05292 -0.15875,0.05292 -0.09525,0 -0.15875,-0.05292 -0.059972,-0.05645 -0.059972,-0.15875 v -0.867833 q 0,-0.194028 -0.0705556,-0.275167 -0.0670278,-0.08467 -0.20813889,-0.08467 -0.1728611,0 -0.27516665,0.119945 -0.10230556,0.116416 -0.10230556,0.321027 v 0.786695 q 0,0.102305 -0.0635,0.15875 -0.0599722,0.05292 -0.15522221,0.05292 -0.09525,0 -0.15875,-0.05292 -0.0635,-0.05645 -0.0635,-0.15875 v -0.867833 q 0,-0.194028 -0.07055555,-0.275167 -0.0670278,-0.08467 -0.20813888,-0.08467 -0.17286111,0 -0.27516666,0.119945 -0.0987778,0.116416 -0.0987778,0.321027 v 0.786695 q 0,0.102305 -0.0635,0.15875 -0.0635,0.05292 -0.15875,0.05292 -0.09525,0 -0.15874995,-0.05292 -0.059972,-0.05645 -0.059972,-0.15875 v -1.36525 q 0,-0.09878 0.0635,-0.151695 0.0635,-0.05292 0.15875003,-0.05292 0.0917222,0 0.14816666,0.05292 0.0599722,0.04939 0.0599722,0.144639 v 0.08467 q 0.0811389,-0.141111 0.21519444,-0.215194 0.13758333,-0.07408 0.31397221,-0.07408 0.38805555,0 0.51858332,0.324556 0.0776111,-0.148167 0.22930555,-0.236361 0.15169444,-0.08819 0.34219443,-0.08819 z" style="font-style:normal;font-variant:normal;font-weight:bold;font-stretch:normal;font-size:3.52777767px;font-family:Nunito;-inkscape-font-specification:'Nunito Bold';stroke-width:0.26458332px" id="path41"/>
      <path d="m 3.9469618,16.965541 q 0.2822222,0 0.4303888,0.169334 0.1516945,0.165805 0.1516945,0.53975 v 0.867833 q 0,0.102305 -0.0635,0.15875 -0.059972,0.05292 -0.15875,0.05292 -0.09525,0 -0.15875,-0.05292 -0.059972,-0.05645 -0.059972,-0.15875 v -0.867833 q 0,-0.194028 -0.070556,-0.275167 -0.067028,-0.08467 -0.2081389,-0.08467 -0.1728611,0 -0.2751666,0.119945 -0.1023056,0.116416 -0.1023056,0.321027 v 0.786695 q 0,0.102305 -0.0635,0.15875 -0.059972,0.05292 -0.1552222,0.05292 -0.09525,0 -0.15875,-0.05292 -0.0635,-0.05645 -0.0635,-0.15875 v -0.867833 q 0,-0.194028 -0.070556,-0.275167 -0.067028,-0.08467 -0.2081389,-0.08467 -0.1728611,0 -0.2751667,0.119945 -0.098778,0.116416 -0.098778,0.321027 v 0.786695 q 0,0.102305 -0.0635,0.15875 -0.0635,0.05292 -0.1587499,0.05292 -0.09525,0 -0.15875,-0.05292 -0.059972,-0.05645 -0.059972,-0.15875 v -1.36525 q 0,-0.09878 0.0635,-0.151695 0.0635,-0.05292 0.15875,-0.05292 0.091722,0 0.1481667,0.05292 0.059972,0.04939 0.059972,0.144639 v 0.08467 q 0.081139,-0.141111 0.2151945,-0.215194 0.1375833,-0.07408 0.3139722,-0.07408 0.3880555,0 0.5185833,0.324556 0.077611,-0.148167 0.2293055,-0.236361 0.1516945,-0.08819 0.3421945,-0.08819 z" style="font-style:normal;font-variant:normal;font-weight:bold;font-stretch:normal;font-size:3.52777767px;font-family:Nunito;-inkscape-font-specification:'Nunito Bold';stroke-width:0.26458332px" id="path43"/>
      <path d="m 6.3389592,16.972597 q 0.1023056,0 0.1622778,0.05644 0.059972,0.05645 0.059972,0.151695 v 1.368777 q 0,0.09172 -0.0635,0.148167 -0.059972,0.05645 -0.15875,0.05645 -0.09525,0 -0.1516944,-0.05292 -0.056445,-0.05292 -0.056445,-0.144639 v -0.08819 q -0.081139,0.141111 -0.2187222,0.218722 -0.1375833,0.07408 -0.3104444,0.07408 -0.635,0 -0.635,-0.712611 v -0.867833 q 0,-0.09525 0.059972,-0.151695 0.059972,-0.05644 0.15875,-0.05644 0.1023056,0 0.1622778,0.05644 0.059972,0.05645 0.059972,0.151695 v 0.871361 q 0,0.183444 0.074083,0.271639 0.074083,0.08819 0.2328334,0.08819 0.1834444,0 0.2928055,-0.119944 Q 6.120237,18.168513 6.120237,17.96743 v -0.786694 q 0,-0.09525 0.059972,-0.151695 0.059972,-0.05644 0.15875,-0.05644 z" style="font-style:normal;font-variant:normal;font-weight:bold;font-stretch:normal;font-size:3.52777767px;font-family:Nunito;-inkscape-font-specification:'Nunito Bold';stroke-width:0.26458332px" id="path45"/>
      <path d="m 8.0186233,16.965541 q 0.3104444,0 0.4621388,0.176389 0.1516945,0.176389 0.1516945,0.532695 v 0.867833 q 0,0.09878 -0.059972,0.155222 -0.056444,0.05645 -0.15875,0.05645 -0.1023056,0 -0.1622778,-0.05645 -0.059972,-0.05644 -0.059972,-0.155222 v -0.843139 q 0,-0.201083 -0.077611,-0.292806 -0.074083,-0.09172 -0.2363611,-0.09172 -0.1905,0 -0.3069167,0.119945 -0.1128889,0.119944 -0.1128889,0.321027 v 0.786695 q 0,0.09878 -0.059972,0.155222 -0.059972,0.05645 -0.1622778,0.05645 -0.1023055,0 -0.1622778,-0.05645 -0.056444,-0.05644 -0.056444,-0.155222 v -1.36525 q 0,-0.09172 0.059972,-0.148167 0.059972,-0.05644 0.1622778,-0.05644 0.091722,0 0.1481667,0.05644 0.059972,0.05292 0.059972,0.141111 v 0.09525 q 0.088194,-0.144639 0.2363611,-0.22225 0.1481666,-0.07761 0.3351389,-0.07761 z" style="font-style:normal;font-variant:normal;font-weight:bold;font-stretch:normal;font-size:3.52777767px;font-family:Nunito;-inkscape-font-specification:'Nunito Bold';stroke-width:0.26458332px" id="path47"/>
      <path d="m 9.3025133,18.754125 q -0.09525,0 -0.15875,-0.05292 -0.059972,-0.05645 -0.059972,-0.15875 v -1.361722 q 0,-0.102306 0.059972,-0.155223 0.0635,-0.05292 0.15875,-0.05292 0.09525,0 0.15875,0.05292 0.0635,0.05292 0.0635,0.155223 v 1.361722 q 0,0.102305 -0.0635,0.15875 -0.0635,0.05292 -0.15875,0.05292 z m 0,-2.0955 q -0.1199445,0 -0.1905,-0.0635 -0.070556,-0.06703 -0.070556,-0.172862 0,-0.105833 0.070556,-0.169333 0.070556,-0.0635 0.1905,-0.0635 0.1164166,0 0.1869722,0.0635 0.074083,0.0635 0.074083,0.169333 0,0.105834 -0.070556,0.172862 -0.070556,0.0635 -0.1905,0.0635 z" style="font-style:normal;font-variant:normal;font-weight:bold;font-stretch:normal;font-size:3.52777767px;font-family:Nunito;-inkscape-font-specification:'Nunito Bold';stroke-width:0.26458332px" id="path49"/>
      <path d="m 10.875572,18.426041 q 0.176389,0.01058 0.176389,0.15875 0,0.08467 -0.07056,0.130528 -0.06703,0.04233 -0.194028,0.03528 l -0.09525,-0.0071 q -0.592666,-0.04233 -0.592666,-0.635 V 17.339486 H 9.9230719 q -0.09525,0 -0.1481667,-0.04233 -0.049389,-0.04233 -0.049389,-0.123472 0,-0.08114 0.049389,-0.123472 0.052917,-0.04233 0.1481667,-0.04233 h 0.1763891 v -0.324556 q 0,-0.09525 0.05997,-0.151694 0.05997,-0.05644 0.162278,-0.05644 0.09878,0 0.15875,0.05644 0.05997,0.05644 0.05997,0.151694 v 0.324556 h 0.299861 q 0.09525,0 0.144639,0.04233 0.05292,0.04233 0.05292,0.123472 0,0.08114 -0.05292,0.123472 -0.04939,0.04233 -0.144639,0.04233 h -0.299861 v 0.800805 q 0,0.261056 0.239889,0.278695 z" style="font-style:normal;font-variant:normal;font-weight:bold;font-stretch:normal;font-size:3.52777767px;font-family:Nunito;-inkscape-font-specification:'Nunito Bold';stroke-width:0.26458332px" id="path51"/>
      <path d="m 12.512296,17.099597 q 0.02822,-0.0635 0.07408,-0.09172 0.04939,-0.03175 0.105833,-0.03175 0.08114,0 0.144639,0.05644 0.06703,0.05292 0.06703,0.134056 0,0.0388 -0.02117,0.08114 l -0.963083,2.017889 q -0.05997,0.119945 -0.186972,0.119945 -0.08114,0 -0.144639,-0.05292 -0.05997,-0.04939 -0.05997,-0.127 0,-0.03881 0.02117,-0.08819 l 0.239889,-0.504473 -0.656166,-1.36525 q -0.01764,-0.03528 -0.01764,-0.08114 0,-0.08114 0.06703,-0.137584 0.07056,-0.05644 0.15875,-0.05644 0.05997,0 0.109361,0.03175 0.04939,0.02822 0.07761,0.09172 l 0.493889,1.090083 z" style="font-style:normal;font-variant:normal;font-weight:bold;font-stretch:normal;font-size:3.52777767px;font-family:Nunito;-inkscape-font-specification:'Nunito Bold';stroke-width:0.26458332px" id="path53"/>
    </g>
  </g>
</svg>
